<svg xmlns="http://www.w3.org/2000/svg" width="1600" height="900" viewBox="0 0 1600 900"><rect width="1600" height="900" fill="#f8fbff"/><rect x="50" y="50" width="1500" height="800" rx="28" fill="#ffffff" stroke="#dbeafe" stroke-width="4"/><text x="100" y="130" font-family="Arial, sans-serif" font-size="42" font-weight="700" fill="#0f172a">C4 — Component Diagram: DZO Agent</text><text x="100" y="175" font-family="Arial, sans-serif" font-size="24" fill="#475569">Внутреннее устройство агента: prompt, orchestration, tools, state и LLM adapter.</text><rect x="540" y="220" width="520" height="500" rx="28" fill="#eff6ff" stroke="#93c5fd" stroke-width="3"/><text x="700" y="270" font-family="Arial" font-size="34" font-weight="700" fill="#1d4ed8">DZO Agent</text><rect x="610" y="320" width="170" height="90" rx="16" fill="#dbeafe"/><text x="655" y="375" font-family="Arial" font-size="26" fill="#1e3a8a">Prompt</text><rect x="820" y="320" width="170" height="90" rx="16" fill="#dbeafe"/><text x="830" y="375" font-family="Arial" font-size="26" fill="#1e3a8a">LangGraph</text><rect x="610" y="455" width="170" height="90" rx="16" fill="#dbeafe"/><text x="665" y="510" font-family="Arial" font-size="26" fill="#1e3a8a">Tools</text><rect x="820" y="455" width="170" height="90" rx="16" fill="#dbeafe"/><text x="865" y="510" font-family="Arial" font-size="26" fill="#1e3a8a">State</text><rect x="715" y="590" width="170" height="90" rx="16" fill="#dbeafe"/><text x="735" y="645" font-family="Arial" font-size="26" fill="#1e3a8a">LLM adapter</text><line x1="780" y1="365" x2="820" y2="365" stroke="#60a5fa" stroke-width="6"/><line x1="695" y1="410" x2="695" y2="455" stroke="#60a5fa" stroke-width="6"/><line x1="905" y1="410" x2="905" y2="455" stroke="#60a5fa" stroke-width="6"/><line x1="800" y1="545" x2="800" y2="590" stroke="#60a5fa" stroke-width="6"/><text x="120" y="770" font-family="Arial" font-size="24" fill="#334155">Компонентный уровень показывает, как архитектура курса связана с реальным кодом агента.</text></svg>