<svg xmlns="http://www.w3.org/2000/svg" width="1600" height="900" viewBox="0 0 1600 900"><rect width="1600" height="900" fill="#f8fbff"/><rect x="50" y="50" width="1500" height="800" rx="28" fill="#ffffff" stroke="#dbeafe" stroke-width="4"/><text x="100" y="130" font-family="Arial, sans-serif" font-size="42" font-weight="700" fill="#0f172a">venv: как устроено изолированное окружение</text><text x="100" y="175" font-family="Arial, sans-serif" font-size="24" fill="#475569">Смешанный формат: простая схема для новичка + техническая точность для разработчика.</text><rect x="100" y="240" width="600" height="520" rx="24" fill="#eff6ff" stroke="#93c5fd" stroke-width="3"/><text x="140" y="300" font-family="Arial, sans-serif" font-size="34" font-weight="700" fill="#1d4ed8">Без venv</text><rect x="150" y="350" width="480" height="90" rx="18" fill="#dbeafe"/><text x="230" y="405" font-family="Arial, sans-serif" font-size="30" font-weight="700" fill="#1e3a8a">Системный Python</text><rect x="150" y="485" width="220" height="90" rx="18" fill="#ffffff" stroke="#bfdbfe" stroke-width="2"/><text x="205" y="540" font-family="Arial, sans-serif" font-size="28" fill="#334155">Проект A</text><rect x="410" y="485" width="220" height="90" rx="18" fill="#ffffff" stroke="#bfdbfe" stroke-width="2"/><text x="465" y="540" font-family="Arial, sans-serif" font-size="28" fill="#334155">Проект B</text><line x1="260" y1="485" x2="260" y2="440" stroke="#60a5fa" stroke-width="6"/><line x1="520" y1="485" x2="520" y2="440" stroke="#60a5fa" stroke-width="6"/><text x="155" y="650" font-family="Arial, sans-serif" font-size="24" fill="#475569">Оба проекта используют одни и те же глобальные пакеты.</text><text x="155" y="690" font-family="Arial, sans-serif" font-size="24" fill="#ef4444">Риск: конфликт версий, нестабильные запуски, сложная отладка.</text><rect x="860" y="240" width="620" height="520" rx="24" fill="#eff6ff" stroke="#93c5fd" stroke-width="3"/><text x="900" y="300" font-family="Arial, sans-serif" font-size="34" font-weight="700" fill="#1d4ed8">С venv</text><rect x="910" y="345" width="520" height="370" rx="18" fill="#ffffff" stroke="#bfdbfe" stroke-width="2"/><text x="950" y="400" font-family="Consolas, monospace" font-size="28" fill="#0f172a">dzo-tz-agents/</text><text x="980" y="450" font-family="Consolas, monospace" font-size="26" fill="#334155">.venv/</text><text x="1020" y="495" font-family="Consolas, monospace" font-size="24" fill="#64748b">bin/ or Scripts/</text><text x="1020" y="535" font-family="Consolas, monospace" font-size="24" fill="#64748b">lib/site-packages</text><text x="1020" y="575" font-family="Consolas, monospace" font-size="24" fill="#64748b">pyvenv.cfg</text><text x="980" y="625" font-family="Consolas, monospace" font-size="26" fill="#334155">pyproject.toml</text><text x="980" y="665" font-family="Consolas, monospace" font-size="26" fill="#334155">requirements.txt</text><text x="980" y="705" font-family="Consolas, monospace" font-size="26" fill="#334155">api/  shared/  course/</text><rect x="100" y="790" width="1380" height="40" rx="12" fill="#dbeafe"/><text x="130" y="818" font-family="Arial, sans-serif" font-size="22" fill="#1e3a8a">Команда: python -m venv .venv → activate → pip install -e &quot;.[ui,dev]&quot;</text></svg>